<svg width="229" height="229" xmlns="http://www.w3.org/2000/svg">
    <style type="text/css">.st0{fill-rule:evenodd;clip-rule:evenodd;fill:none;stroke:#fed539;stroke-width:16;stroke-miterlimit:3;}</style>
    <path id="svg_6" d="m90,33.9375l-31,22.0625l-5,35l1,42l19,24c0,0.9375 -28,25.9375 -28,25.9375c0,0 25,16 25,15.0625c0,0.9375 32,13.9375 32,13c0,0.9375 47,-14.0625 47,-14.0625c0,0 31,-55 31,-55.9375c0,0.9375 2,-28.0625 2,-31.0625c0,-3 -23,-36 -23,-36.9375c0,0.9375 25,-27.0625 25,-28c0,0.9375 -27,-16.0625 -27,-17c0,0.9375 -27,-4.0625 -27,-5" stroke-opacity="null" stroke-width="null" stroke="null" fill="#212121"/>
    <path stroke="#B8D078" fill="#5fbf00" id="svg_1" d="m183.4,43.9l-26.5,26.5c0.7,0.5 1.2,1 1.6,1.6c15.4,15.3 23.2,33.8 23.2,55.5c0,21.7 -7.7,40.2 -23.2,55.5c-15.3,15.3 -33.8,23 -55.3,23c-21.7,0 -40.2,-7.7 -55.5,-23c-0.6,-0.6 -1.3,-1.3 -1.9,-1.9l26.5,-26.3c-0.5,-0.5 -1,-1.1 -1.5,-1.8c-15.3,-15.3 -23,-33.8 -23,-55.5s7.7,-40.2 23,-55.6c15.3,-15.3 33.8,-23 55.5,-23c21.6,0 40.1,7.7 55.5,23c0.3,0.7 0.9,1.4 1.6,2zm-111.3,110.9l84.6,-84.6l0.2,0.2l-84.5,84.4l-0.3,0z" class="st0"/>
    <polyline stroke-linecap="round" id="svg_3" points="-386,30.9375 -386,30.9375 " fill-opacity="null" stroke-opacity="null" stroke-width="null" stroke="null" fill="none"/>
    <path id="svg_7" d="m146,175.9375" opacity="0.5" fill-opacity="null" stroke-opacity="null" stroke-width="null" stroke="null" fill="null"/>
</svg>
